<?xml version="1.0" encoding="UTF-8"?>
<!-- Generated by Pixelmator Pro 3.7.1 -->
<svg width="1037" height="953" viewBox="0 0 1037 953" xmlns="http://www.w3.org/2000/svg">
    <g id="archivebox">
        <path id="Path" fill="#ffffff" fill-opacity="0.85" stroke="none" d="M 251.177002 953 L 785.702026 953 C 900.544983 953 966.362976 887.155029 966.362976 772.799988 L 966.362976 270.713989 L 815.380981 270.713989 L 815.380981 753.950989 C 815.380981 788.570984 798.801025 803.544006 766.161987 803.544006 L 270.71701 803.544006 C 237.962997 803.544006 221.498001 788.570984 221.498001 753.950989 L 221.498001 270.713989 L 70.515701 270.713989 L 70.515701 772.799988 C 70.515701 887.27002 136.334 953 251.177002 953 Z M 372.658997 558.202026 L 664.708984 558.202026 C 696.033997 558.202026 719.635986 534.716003 719.635986 502.787018 L 719.635986 486.789001 C 719.635986 454.860016 696.406982 432.234985 664.708984 432.234985 L 372.658997 432.234985 C 340.959991 432.234985 317.846985 454.860016 317.846985 486.789001 L 317.846985 502.787018 C 317.846985 534.716003 341.705994 558.202026 372.658997 558.202026 Z M 142.759995 351.353027 L 894.86499 351.353027 C 981.036011 351.353027 1036.880005 293.237976 1036.880005 207.182983 L 1036.880005 144.901001 C 1036.880005 59.218201 981.036011 1.103577 894.86499 1.103577 L 142.759995 1.103577 C 57.653599 1.103577 0 59.218201 0 144.901001 L 0 207.182983 C 0 293.237976 56.5891 351.353027 142.759995 351.353027 Z M 157.557007 216.445007 C 141.723007 216.445007 131.957001 206.564026 131.957001 190.72998 L 131.957001 161.72699 C 131.957001 145.52002 141.723007 135.638977 157.557007 135.638977 L 879.437012 135.638977 C 895.270996 135.638977 904.921997 145.52002 904.921997 161.72699 L 904.921997 190.72998 C 904.921997 206.564026 895.270996 216.445007 879.437012 216.445007 Z"/>
    </g>
</svg>
